<?xml version="1.0" encoding="UTF-8"?>
<svg version="1.1" viewBox="0 0 1600 1006" width="1280" height="1280" xmlns="http://www.w3.org/2000/svg">
<path transform="translate(69)" d="m0 0 18 2 15 5 11 7 8 7 8 11 6 13 3 10 1 7v159h177l16 3 13 5 11 7 8 9 6 10 3 9 1 6v17l-4 14-7 11-4 5-12 9-15 6-10 2-182 1v424l3 25 5 21 6 15 6 12 8 11 9 10 11 9 19 10 15 5 18 3 27 1 18-2 16-4 13-5 19-10 13-10 12-11 11-13 9-13 9-15 7-14-1-7-12-35-6-24-6-31-4-33-1-16-1-38 2-37 4-30 7-34 7-26 11-31 11-24 10-20 12-20 10-14 9-12 13-16 15-16 10-10 8-7 13-11 18-13 22-14 23-12 16-8 29-11 20-6 27-7 29-5 35-3h58l36 3 31 5 39 9 30 10 20 8 25 12 12 9 8 7 9 13 4 10 2 10v12l-3 14-8 16-6 7-10 7-12 5-8 2-12 1-20-2-20-6-18-8-21-8-26-8-22-5-21-3-33-2h-16l-25 2-24 4-21 6-24 9-23 12-15 10-13 10-13 12-13 13-11 14-10 14-9 15-11 22-9 24-6 19-5 22-4 26-2 24v38l3 31 5 29 6 23 9 25 12 25 8 14 12 17 9 11 9 10 13 13 14 11 16 11 18 10 17 8 33 11 29 6 30 3h34l24-2 28-5 24-7 21-8 23-12 21-14 10-8 10-9 8-7 10-10 9-11 10-12 10-14 10-15 14-24 14-27 15-35 13-35 10-31 17-56 14-46 12-38 13-36 15-35 17-34 15-25 11-16 9-12 8-10 9-10 7-8 13-11 15-11 13-8 15-8 21-8 23-7 20-4 24-3h52l32 3 23 4 28 7 24 8 25 11 11 7 10 8 7 8 5 8 4 13 1 12-2 15-4 11-8 11-9 8-11 5-14 3h-14l-19-4-24-8-24-9-28-7-23-3h-29l-20 4-14 5-11 6-10 8-7 7-7 11-5 13-2 10v19l3 16 5 14 9 15 8 10 9 10 14 13 16 12 20 14 19 13 18 13 12 8 14 10 16 11 23 16 14 10 14 11 15 13 17 16 7 8 11 13 14 21 11 21 9 25 5 23 2 15 1 13v33l-3 24-6 25-7 19-10 21-14 21-14 17-13 13-14 11-16 11-24 13-24 10-28 8-20 4-23 3-12 1h-42l-23-2-39-6-32-8-29-9-26-11-17-9-11-9-8-9-6-12-3-14v-12l4-16 6-11 10-10 16-8 10-2h14l15 3 29 9 35 11 29 7 20 3 11 1h27l20-3 20-6 19-9 12-9 10-9 11-15 7-15 4-13 2-11v-27l-4-18-6-15-9-14-8-10-14-14-11-9-19-14-12-8-23-16-17-12-19-13-17-12-16-11-17-12-14-11-13-11-14-12-12-12-7-8-10-12-2-2-12 39-21 69-12 36-11 30-15 36-18 38-13 23-9 16-20 30-14 19-11 13-7 8-11 12-16 16-8 7-16 13-18 13-28 17-22 11-25 10-25 8-25 6-34 5-24 2h-50l-37-3-33-5-27-6-27-8-25-9-24-11-23-12-17-11-14-10-13-10-14-12-19-19h-2l-12 18-9 11-18 20-8 7-15 12-18 12-20 11-22 9-24 7-20 4-23 3-21 1-36-1-33-4-23-5-30-10-25-12-16-10-14-11-10-9-11-11-13-17-11-18-8-16-9-24-6-23-5-30-2-25v-714l3-15 5-13 7-11 11-11 9-6 14-5 9-2z" fill="#F90610"/>
<path transform="translate(1356,213)" d="m0 0h52l32 3 23 4 28 7 24 8 25 11 11 7 10 8 7 8 5 8 4 13 1 12-2 15-4 11-8 11-9 8-11 5-14 3h-14l-19-4-24-8-24-9-28-7-23-3h-29l-20 4-14 5-11 6-10 8-7 7-7 11-5 13-2 10v19l3 16 5 14 9 15 8 10 9 10 14 13 16 12 20 14 19 13 18 13 12 8 14 10 16 11 23 16 14 10 14 11 15 13 17 16 7 8 11 13 14 21 11 21 9 25 5 23 2 15 1 13v33l-3 24-6 25-7 19-10 21-14 21-14 17-13 13-14 11-16 11-24 13-24 10-28 8-20 4-23 3-12 1h-42l-23-2-39-6-32-8-29-9-26-11-17-9-11-9-8-9-6-12-3-14v-12l4-16 6-11 10-10 16-8 10-2h14l15 3 29 9 35 11 29 7 20 3 11 1h27l20-3 20-6 19-9 12-9 10-9 11-15 7-15 4-13 2-11v-27l-4-18-6-15-9-14-8-10-14-14-11-9-19-14-12-8-23-16-17-12-19-13-17-12-16-11-17-12-14-11-13-11-14-12-12-12-7-8-10-12-2-2-12 39-21 69-12 36-11 30-15 36-18 38-13 23-9 16-20 30-14 19-11 13-7 8-11 12-16 16-8 7-16 13-18 13-28 17-22 11-25 10-25 8-25 6-34 5-24 2h-50l-37-3-33-5-27-6-27-8-25-9-24-11-23-12-17-11-14-10-13-10-14-12-16-16-2-3 10-1 28-8 25-7 28-8 10-3 2-1-2-4-11-18-4-7-14-27-6-16-8-22-10-40-3-16-2-17-4-38v-16h1l4 31 6 29 10 30 8 18 12 23 11 16 11 14 11 12 12 12 14 11 16 11 18 10 17 8 33 11 29 6 30 3h34l24-2 28-5 24-7 21-8 23-12 21-14 10-8 10-9 8-7 10-10 9-11 10-12 10-14 10-15 14-24 14-27 15-35 13-35 10-31 17-56 14-46 12-38 13-36 15-35 17-34 15-25 11-16 9-12 8-10 9-10 7-8 13-11 15-11 13-8 15-8 21-8 23-7 20-4z" fill="#F31E47"/>
<path transform="translate(724,213)" d="m0 0h58l36 3 31 5 39 9 30 10 20 8 25 12 12 9 8 7 9 13 4 10 2 10v12l-3 14-8 16-6 7-10 7-12 5-8 2-12 1-20-2-20-6-18-8-21-8-26-8-22-5-21-3-33-2h-16l-25 2-24 4-21 6-24 9-23 12-15 10-13 10-13 12-13 13-11 14-10 14-9 15-11 22-9 24-6 19-5 22-4 26-2 24v38l1 30 4 37 3 23 6 27 5 17 3 12 8 21 6 15 12 23 6 11 10 15v4l-7 3-23 6-30 9-23 6-15 4-6-1-5-5-7-8-11-14-1-3h-2l-1-4h-2v-3h-2l-4-7-6-8-6-11-9-16-10-21-10-26-8-25-7-29-6-36-2-19-1-16-1-38 2-37 4-30 7-34 7-26 11-31 11-24 10-20 12-20 10-14 9-12 13-16 15-16 10-10 8-7 13-11 18-13 22-14 23-12 16-8 29-11 20-6 27-7 29-5z" fill="#FA8D0C"/>
<path transform="translate(1192,296)" d="m0 0v3l-11 19-10 25-5 18-3 22v39l2 18 6 25 8 22 11 21 8 12 4 5-2 9-14 46-18 59-12 36-12 32-14 33-16 34-13 24-9 15-10 16-11 16-14 19-11 13-7 8-11 12-16 16-8 7-16 13-18 13-28 17-22 11-25 10-25 8-25 6-34 5-24 2h-50l-37-3-33-5-27-6-27-8-25-9-24-11-23-12-17-11-14-10-13-10-14-12-16-16-2-3 10-1 28-8 25-7 28-8 10-3 2-1-2-4-11-18-4-7-14-27-6-16-8-22-10-40-3-16-2-17-4-38v-16h1l4 31 6 29 10 30 8 18 12 23 11 16 11 14 11 12 12 12 14 11 16 11 18 10 17 8 33 11 29 6 30 3h34l24-2 28-5 24-7 21-8 23-12 21-14 10-8 10-9 8-7 10-10 9-11 10-12 10-14 10-15 14-24 14-27 15-35 13-35 10-31 17-56 14-46 12-38 13-36 15-35 17-34 15-25 11-16 9-12z" fill="#EA3581"/>
<path transform="translate(138,609)" d="m0 0h1l1 150 3 25 5 21 6 15 6 12 8 11 9 10 11 9 19 10 15 5 18 3 27 1 18-2 16-4 13-5 19-10 13-10 12-11 11-13 9-13 9-15 8-16 2 1 5 12 10 21 11 18 4 7 6 8v3h2v3h2l1 4h2l11 14 4 5v2l3 1 4 5-1 5-11 16-9 11-18 20-8 7-15 12-18 12-20 11-22 9-24 7-20 4-23 3-21 1-36-1-33-4-23-5-30-10-25-12-16-10-14-11-10-9-11-11-13-17-11-18-8-16-9-24-6-23-5-30-2-25v-161h1v42l21 3 69 10 19 2 20 3 7-1z" fill="#EA3581"/>
<path transform="translate(1501,599)" d="m0 0 6 4 15 13 17 16 7 8 11 13 14 21 11 21 9 25 5 23 2 15 1 13v33l-3 24-6 25-7 19-10 21-14 21-14 17-13 13-14 11-16 11-24 13-24 10-28 8-20 4-23 3-12 1h-42l-23-2-39-6-32-8-29-9-26-11-17-9-11-9-8-9-6-12-3-14v-12l4-16 6-11 10-10 16-8 10-2h14l15 3 29 9 35 11 29 7 20 3 11 1h27l20-3 20-6 19-9 12-9 10-9 11-15 7-15 4-13 2-11v-27l-4-18-6-15-9-14-8-10-18-18 5 2 17 14 13 11 26 24 15 16 5 3z" fill="#EA3581"/>
<path transform="translate(705,332)" d="m0 0h12v1l-24 4-21 6-24 9-23 12-15 10-13 10-13 12-13 13-11 14-10 14-9 15-11 22-9 24-6 19-5 22-4 26-2 24v38l1 30 4 37 3 23 6 27 5 17 3 12 8 21 6 15 12 23 6 11 10 15v4l-7 3-23 6-30 9-23 6-15 4-6-1-5-5-7-8-11-14-1-3h-2l-1-4h-2v-3h-2l-4-7-6-8-6-11-9-16-10-21-10-26-8-25-7-29-6-36-2-19-1-16-1-38 2-11 3-19 6-21 10-25 8-15 10-16 10-14 11-13 11-12 16-16 11-9 15-12 33-22 24-13 16-8 23-10 27-10 32-9 30-7 26-4z" fill="#F90610"/>
<path transform="translate(1356,213)" d="m0 0h52l32 3 23 4 28 7 24 8 25 11 11 7 10 8 7 8 5 8 4 13 1 12-2 15-4 11-8 11-9 8-11 5-14 3h-14l-19-4-24-8-24-9-28-7-23-3h-29l-20 4-14 5-11 6-10 8-7 7-7 11-5 13-2 10v19l3 16 5 14 9 15 8 10 9 10 13 12h-3l-10-8-14-11-10-9-8-7-12-11-17-17-9-11-8-9-13-18-11-19-7-14-7-21-2-10v-23l5-16 6-11 4-6 13-10 11-7 20-11 21-8 23-7 20-4z" fill="#FA8D0C"/>
<path transform="translate(138,335)" d="m0 0h1v274l-1 67-4 2-18-2-13-2-19-2-77-11-6-2-1-42v-258h1v32l16 1 97 14 21 2 1 4h2z" fill="#F31E47"/>
<path transform="translate(1192,296)" d="m0 0v3l-11 19-10 25-5 18-3 22v39l2 18 6 25 8 22 11 21 8 12 4 5-2 9-14 46-18 59-12 36-12 32-14 33-16 34-3 5h-3l-5-5-18-11-12-7-11-7-18-11-10-6-11-7-6-1 1-7 9-17 15-35 13-35 10-31 17-56 14-46 12-38 13-36 15-35 17-34 15-25 11-16 9-12z" fill="#980FC0"/>
<path transform="translate(69)" d="m0 0 18 2 15 5 11 7 8 7 8 11 6 13 3 10 1 7v159l-3 1-24 2-18 4-20 7-15 8-14 10-15 15-9 13-9 17-6 18-4 19-1 7h-1v-278l3-15 5-13 7-11 11-11 9-6 14-5 9-2z" fill="#FA8D0C"/>
<path transform="translate(503,627)" d="m0 0h1l1 30 4 37 3 23 6 27 5 17 3 12 8 21 6 15 12 23 6 11 10 15v4l-7 3-23 6-30 9-23 6-15 4-6-1-5-5-7-8-11-14-1-3h-2l-1-4h-2v-3h-2l-4-7-6-8-6-11-9-16-10-21-10-26-8-25-7-29-5-29v-7h1l1 5 10-1 13-4 10-2 43-13 17-4 33-10 6-2z" fill="#F31E47"/>
<path transform="translate(1220,266)" d="m0 0h2l-2 5-7 14-3 11v23l4 17 8 21 10 18 8 12 12 16 12 14 11 12 16 16 8 7 11 10 2 1-1 154-1 2-4-1-11-7-14-10-16-12-11-9-14-12-12-11-7-7-7-8-10-12-13-19-9-16-8-18-6-19-5-25-1-11v-39l3-22 6-21 10-24 10-17 3-6 11-12 7-8z" fill="#F90610"/>
<path transform="translate(1181,857)" d="m0 0h14l15 3 29 9 35 11 29 7 20 3 21 2 1 3-1 3 9 32 9 36 8 30v4h2l-1 5h-42l-23-2-39-6-32-8-29-9-26-11-17-9-11-9-8-9-6-12-3-14v-12l4-16 6-11 10-10 16-8z" fill="#980FC0"/>
<path transform="translate(395,782)" d="m0 0 2 1 5 12 10 21 11 18 4 7 6 8v3h2v3h2l1 4h2l11 14 4 5v2l3 1 4 5-1 5-11 16-9 11-18 20-8 7-15 12-18 12-20 11-7 3-5-1-1-8-9-29-8-25-13-41-3-7v-3l17-9 13-10 12-11 11-13 9-13 9-15z" fill="#980FC0"/>
<path transform="translate(1016,721)" d="m0 0 1 3h6l11 7 12 7 32 20 14 8 15 10 1 3h2l-2 6-13 23-11 18-13 19-14 19-11 13-5 5-7-3-19-12-12-7-12-8-11-6-14-9-12-7-9-6-1-2h-2v-2l8-7 10-10 9-11 10-12 10-14 10-15 14-24z" fill="#C424A1"/>
<path transform="translate(314,870)" d="m0 0h2l3 5 9 29 12 38 9 28 2 10 1 4-12 5-19 2h-41l-22-4-13-4-3-16-12-36-5-17-11-33 1-5 7 1 18 3 27 1 18-2 16-4z" fill="#C424A1"/>
<path transform="translate(1432,864)" d="m0 0 1 2 3 1 7 24 6 25 10 35 3 14 4 13-2 7-17 6-25 7-29 5-10 1h-11v-4h-2l-8-31-6-22-5-20-8-29 1-6 26-2 19-4 17-6 17-9z" fill="#C424A1"/>
<path transform="translate(1492,228)" d="m0 0 12 3 25 10 16 8 14 10 9 10 5 8 4 13 1 12-2 15-4 11-8 11-9 8-11 5-14 3h-14l-19-4-8-3-1-4v-113l1-2z" fill="#F3692D"/>
<path transform="translate(0,256)" d="m0 0 33 1 4 1h3l-10 10-9 13-9 17-6 18-4 19-1 7h-1z" fill="#F3692D"/>
</svg>
