<?xml version="1.0" encoding="UTF-8"?>
<svg version="1.1" viewBox="0 0 1965 2021" width="1280" height="1280" xmlns="http://www.w3.org/2000/svg">
<path transform="translate(72,629)" d="m0 0h26l16 4 16 8 11 8 11 11 9 14 5 12 3 11 1 6v615l-4 17-8 17-11 14-10 9-13 8-15 6-16 3h-16l-16-3-15-6-11-7-10-9-7-7-7-11-5-10-4-13-2-13v-606l3-17 6-15 7-12 12-13 12-9 14-7 13-4z" fill="#00ADEE"/>
<path transform="translate(970,111)" d="m0 0h25l16 4 17 8 10 8 12 12 8 13 6 14 3 14v616l-4 17-5 12-8 12-11 12-12 9-15 7-14 4-7 1h-17l-16-3-17-7-14-10-11-11-9-14-6-14-3-13-1-13v-594l2-18 6-18 9-15 11-12 12-9 14-7 13-4z" fill="#01ADEE"/>
<path transform="translate(970,1147)" d="m0 0h25l16 4 16 8 9 6 14 14 8 13 5 11 4 17v616l-4 17-5 12-8 12-11 12-12 9-15 7-14 4-7 1h-17l-15-3-16-6-12-8-10-9-8-9-8-14-5-14-2-9-1-13v-594l2-18 6-18 9-15 11-12 12-9 14-7 13-4z" fill="#01ADEE"/>
<path transform="translate(780,1036)" d="m0 0h21l17 4 16 7 12 9 11 11 9 14 6 14 3 13 1 16-2 15-5 16-8 14-8 10-7 7-10 7-78 45-28 16-24 14-28 16-208 120-28 16-24 14-28 16-52 30-21 12-13 6-18 4h-19l-15-3-15-6-11-7-10-9-9-10-8-14-5-14-2-9-1-16 2-15 5-16 7-13 8-10 9-9 14-9 130-75 28-16 24-14 28-16 130-75 28-16 24-14 28-16 97-56 13-5z" fill="#00ADEE"/>
<path transform="translate(782)" d="m0 0h17l15 3 13 5 11 6 11 9 10 11 9 15 5 14 2 10v24l-4 16-6 14-10 14-9 9-13 9-28 16-26 15-24 14-182 105-24 14-182 105-24 14-28 16-15 6-17 3h-14l-16-3-13-5-11-6-11-9-7-7-7-10-7-14-4-13-2-16 1-15 4-16 8-16 8-11 10-10 15-10 25-14 24-14 52-30 24-14 156-90 24-14 156-90 24-14 26-15 13-6 14-4z" fill="#00ADEE"/>
<path transform="translate(265,1554)" d="m0 0h23l16 4 12 5 28 16 52 30 24 14 130 75 24 14 156 90 24 14 78 45 13 9 12 12 9 14 6 15 3 13v23l-4 17-8 16-8 11-11 11-14 9-14 6-13 3-16 1-15-2-18-6-23-13-24-14-104-60-24-14-130-75-24-14-104-60-24-14-52-30-17-10-13-11-9-11-7-12-6-18-2-16 1-15 4-16 8-17 8-10 6-7 13-10 17-8z" fill="#00ADEE"/>
<path transform="translate(275,518)" d="m0 0 20 2 15 5 19 10 24 14 52 30 28 16 24 14 28 16 156 90 28 16 24 14 28 16 104 60 15 9 12 11 9 10 9 17 4 13 2 15-1 17-4 15-6 14-8 11-9 10-12 9-16 8-16 4-9 1h-9l-14-2-15-5-12-6-24-14-28-16-130-75-28-16-24-14-28-16-130-75-28-16-24-14-28-16-26-15-17-10-9-7-7-6-10-13-7-14-4-13-2-16 1-16 4-15 5-12 8-12 11-12 13-9 12-6 13-4z" fill="#00ADEE"/>
<path transform="translate(1164,1036)" d="m0 0h20l14 3 13 5 27 15 24 14 52 30 28 16 24 14 28 16 130 75 28 16 24 14 28 16 130 75 9 7 9 8 9 12 8 17 4 17v23l-4 16-6 14-10 14-9 9-13 9-13 6-14 4-6 1h-19l-15-3-15-6-26-15-28-16-24-14-28-16-24-14-28-16-156-90-28-16-24-14-28-16-24-14-28-16-52-30-24-14-10-8-9-9-9-14-5-11-4-15-1-8v-13l3-16 5-14 7-12 11-13 13-10 16-8 14-4z" fill="#00ADEE"/>
<path transform="translate(1687,518)" d="m0 0 14 1 19 5 17 9 13 11 10 13 8 15 5 19v24l-4 16-5 12-7 11-9 10-10 9-24 14-28 16-24 14-28 16-78 45-28 16-24 14-28 16-104 60-28 16-24 14-28 16-78 45-14 6-12 3-9 1h-10l-14-2-15-5-13-7-10-8-9-9-9-14-5-11-4-15-1-8v-13l3-16 5-14 7-12 9-11 9-8 11-7 78-45 28-16 24-14 28-16 156-90 28-16 24-14 28-16 104-60 21-12 18-6z" fill="#00ADEE"/>
<path transform="translate(1166)" d="m0 0h17l15 3 15 6 23 13 24 14 156 90 24 14 156 90 24 14 28 16 24 14 52 30 13 8 10 8 10 11 8 13 5 13 3 13v24l-4 16-6 14-8 11-9 10-12 9-16 8-15 4-8 1h-14l-16-3-13-5-22-12-17-10-52-30-24-14-156-90-24-14-156-90-24-14-26-15-24-14-10-8-8-8-7-10-8-16-4-16-1-17 3-19 6-15 7-12 11-12 8-7 13-8 17-6z" fill="#00ADEE"/>
<path transform="translate(1676,1554)" d="m0 0h24l16 4 12 5 11 7 10 9 7 7 8 13 6 14 3 13v24l-4 16-5 12-7 11-9 10-10 9-15 9-130 75-24 14-130 75-24 14-130 75-24 14-26 15-23 13-15 6-19 3-17-1-15-4-11-5-10-6-13-11-10-13-8-17-4-16v-25l4-16 8-16 7-10 13-13 18-11 104-60 24-14 130-75 24-14 156-90 24-14 26-15 21-12 14-6z" fill="#00ADEE"/>
<path transform="translate(1867,629)" d="m0 0h25l16 4 12 5 13 9 9 8 10 13 7 14 4 13 1 6v619l-4 15-5 12-7 11-11 12-10 8-15 8-17 5-7 1h-17l-15-3-13-5-11-6-11-9-10-11-9-15-5-14-2-10v-617l4-17 8-16 7-10 13-13 11-7 13-6z" fill="#00ADEE"/>
</svg>
